<svg xmlns="http://www.w3.org/2000/svg" xmlns:xlink="http://www.w3.org/1999/xlink" width="500" zoomAndPan="magnify" viewBox="0 0 375 374.999991" height="500" preserveAspectRatio="xMidYMid meet" version="1.0"><defs><g/><clipPath id="7d6ca8f2d0"><path d="M 142.46875 116.566406 L 232.449219 116.566406 L 232.449219 206.566406 L 142.46875 206.566406 Z M 142.46875 116.566406 " clip-rule="nonzero"/></clipPath></defs><g clip-path="url(#7d6ca8f2d0)"><path fill="#187eb8" d="M 231.515625 149.027344 C 231.519531 149.027344 231.519531 149.027344 231.519531 149.027344 C 232.390625 148.15625 232.390625 146.738281 231.519531 145.867188 L 210.273438 124.53125 C 205.5 119.738281 197.734375 119.738281 192.960938 124.53125 L 185.875 131.644531 C 185.730469 131.789062 185.605469 131.945312 185.46875 132.097656 C 185.21875 129.335938 184.042969 126.640625 181.941406 124.53125 L 174.859375 117.421875 C 174.824219 117.382812 174.777344 117.351562 174.738281 117.320312 C 174.664062 117.253906 174.589844 117.1875 174.511719 117.132812 C 173.648438 116.5625 172.476562 116.65625 171.714844 117.421875 L 150.464844 138.753906 C 145.691406 143.546875 145.691406 151.347656 150.464844 156.136719 L 157.546875 163.246094 C 157.546875 163.246094 157.546875 163.246094 157.546875 163.25 C 157.691406 163.394531 157.847656 163.523438 157.996094 163.660156 C 155.246094 163.910156 152.566406 165.089844 150.464844 167.199219 L 143.386719 174.308594 C 143.382812 174.308594 143.382812 174.308594 143.382812 174.308594 C 142.511719 175.183594 142.511719 176.597656 143.382812 177.46875 L 164.628906 198.804688 C 166.941406 201.125 170.015625 202.402344 173.285156 202.402344 C 176.554688 202.402344 179.628906 201.125 181.941406 198.804688 L 189.023438 191.691406 C 189.167969 191.546875 189.296875 191.390625 189.433594 191.242188 C 189.683594 194 190.859375 196.691406 192.957031 198.804688 L 200.035156 205.910156 C 200.039062 205.910156 200.039062 205.914062 200.042969 205.914062 C 200.476562 206.351562 201.046875 206.570312 201.617188 206.570312 C 202.183594 206.570312 202.753906 206.351562 203.1875 205.914062 L 224.4375 184.582031 C 229.210938 179.789062 229.210938 171.988281 224.4375 167.195312 L 217.355469 160.085938 C 217.207031 159.941406 217.054688 159.8125 216.902344 159.675781 C 219.652344 159.425781 222.335938 158.246094 224.4375 156.136719 Z M 207.125 127.691406 L 226.800781 147.445312 L 221.289062 152.976562 C 218.25 156.027344 213.3125 156.027344 210.273438 152.976562 C 210.269531 152.972656 210.265625 152.972656 210.261719 152.96875 L 203.207031 145.882812 C 203.199219 145.878906 203.195312 145.871094 203.191406 145.867188 C 199.019531 141.679688 192.566406 141.152344 187.816406 144.28125 C 186.074219 141.285156 186.46875 137.371094 189.027344 134.804688 L 196.109375 127.691406 C 199.144531 124.640625 204.085938 124.640625 207.125 127.691406 Z M 221.289062 181.421875 L 201.617188 201.175781 L 196.109375 195.644531 C 193.070312 192.59375 193.070312 187.632812 196.109375 184.582031 C 196.113281 184.578125 196.113281 184.574219 196.117188 184.566406 L 203.179688 177.480469 C 203.179688 177.476562 203.1875 177.472656 203.191406 177.46875 C 207.359375 173.28125 207.886719 166.800781 204.769531 162.039062 C 207.753906 160.285156 211.652344 160.683594 214.207031 163.25 L 221.289062 170.359375 C 224.328125 173.410156 224.328125 178.375 221.289062 181.421875 Z M 174.863281 174.3125 C 174.863281 174.308594 174.863281 174.308594 174.859375 174.308594 L 167.777344 167.195312 C 167.769531 167.191406 167.761719 167.183594 167.753906 167.175781 C 167.617188 167.039062 167.472656 166.921875 167.332031 166.792969 C 169.433594 166.601562 171.417969 165.875 173.136719 164.679688 L 178.792969 170.359375 L 184.074219 175.660156 C 182.949219 176.273438 181.683594 176.597656 180.367188 176.597656 C 178.289062 176.601562 176.335938 175.789062 174.863281 174.3125 Z M 153.613281 141.914062 L 173.285156 122.160156 L 178.792969 127.691406 C 181.832031 130.742188 181.832031 135.703125 178.792969 138.753906 C 178.789062 138.757812 178.789062 138.761719 178.785156 138.765625 L 171.726562 145.855469 C 171.722656 145.859375 171.71875 145.863281 171.710938 145.867188 C 169.398438 148.1875 168.125 151.273438 168.125 154.558594 C 168.125 156.992188 168.828125 159.316406 170.136719 161.300781 C 168.953125 162 167.609375 162.378906 166.203125 162.378906 C 164.121094 162.378906 162.164062 161.5625 160.695312 160.085938 C 160.695312 160.085938 160.695312 160.085938 160.691406 160.085938 L 153.613281 152.976562 C 150.574219 149.925781 150.574219 144.964844 153.613281 141.914062 Z M 192.960938 156.136719 L 198.46875 161.667969 L 192.960938 167.199219 L 187.449219 172.730469 L 176.433594 161.667969 L 187.449219 150.605469 Z M 184.453125 147.296875 L 178.796875 152.980469 L 173.515625 158.28125 C 172.90625 157.148438 172.582031 155.878906 172.582031 154.558594 C 172.582031 152.472656 173.390625 150.511719 174.855469 149.035156 C 174.855469 149.03125 174.859375 149.03125 174.863281 149.027344 L 181.945312 141.917969 C 181.953125 141.910156 181.957031 141.898438 181.964844 141.890625 C 182.101562 141.753906 182.222656 141.605469 182.351562 141.460938 C 182.535156 143.519531 183.242188 145.527344 184.453125 147.296875 Z M 190.453125 176.039062 L 196.105469 170.359375 L 201.382812 165.0625 C 202.976562 168.023438 202.53125 171.800781 200.046875 174.304688 C 200.046875 174.304688 200.042969 174.304688 200.039062 174.308594 L 192.957031 181.421875 C 192.949219 181.429688 192.941406 181.4375 192.9375 181.445312 C 192.800781 181.582031 192.679688 181.730469 192.554688 181.871094 C 192.367188 179.761719 191.640625 177.765625 190.453125 176.039062 Z M 201.765625 158.660156 L 196.105469 152.980469 L 190.832031 147.679688 C 193.777344 146.082031 197.542969 146.527344 200.035156 149.023438 C 200.035156 149.023438 200.039062 149.027344 200.042969 149.027344 L 207.125 156.140625 C 207.132812 156.148438 207.140625 156.152344 207.148438 156.160156 C 207.285156 156.296875 207.433594 156.421875 207.578125 156.550781 C 205.527344 156.734375 203.527344 157.445312 201.765625 158.660156 Z M 167.777344 195.644531 L 148.105469 175.890625 L 153.613281 170.359375 C 156.652344 167.3125 161.59375 167.3125 164.632812 170.359375 C 164.636719 170.363281 164.636719 170.367188 164.644531 170.371094 L 171.703125 177.457031 C 171.707031 177.460938 171.710938 177.464844 171.714844 177.46875 C 174.027344 179.792969 177.101562 181.070312 180.371094 181.070312 C 182.792969 181.070312 185.109375 180.363281 187.089844 179.054688 C 187.78125 180.238281 188.160156 181.589844 188.160156 183 C 188.160156 185.089844 187.347656 187.054688 185.875 188.53125 L 178.792969 195.644531 C 175.757812 198.695312 170.816406 198.695312 167.777344 195.644531 Z M 167.777344 195.644531 " fill-opacity="1" fill-rule="nonzero"/></g><g fill="#187eb8" fill-opacity="1"><g transform="translate(142.430099, 239.209671)"><g><path d="M 15.777344 0 L 19.972656 0 L 12.699219 -19.753906 L 7.683594 -19.753906 L 0.410156 0 L 4.605469 0 L 6.042969 -4.074219 L 14.339844 -4.074219 Z M 7.246094 -7.503906 L 10.199219 -15.886719 L 13.136719 -7.503906 Z M 7.246094 -7.503906 "/></g></g></g><g fill="#187eb8" fill-opacity="1"><g transform="translate(162.252026, 239.209671)"><g><path d="M 15.257812 -7.230469 C 15.242188 -12.152344 12.277344 -14.355469 8.296875 -14.355469 C 3.964844 -14.355469 0.914062 -11.648438 0.914062 -7.027344 C 0.914062 -2.40625 3.882812 0.273438 8.421875 0.273438 C 11.578125 0.273438 14.109375 -1.351562 15.039062 -4.195312 L 11.429688 -4.730469 C 10.894531 -3.484375 9.800781 -2.828125 8.394531 -2.828125 C 6.519531 -2.828125 4.960938 -3.949219 4.796875 -6.289062 L 15.214844 -6.289062 Z M 8.324219 -11.566406 C 10.007812 -11.566406 11.265625 -10.566406 11.386719 -8.597656 L 4.867188 -8.597656 C 5.179688 -10.664062 6.453125 -11.566406 8.324219 -11.566406 Z M 8.324219 -11.566406 "/></g></g></g><g fill="#187eb8" fill-opacity="1"><g transform="translate(177.904607, 239.209671)"><g><path d="M 8.585938 0.273438 C 13.097656 0.273438 16.296875 -2.445312 16.296875 -7.039062 C 16.296875 -11.605469 13.109375 -14.339844 8.585938 -14.339844 C 4.085938 -14.339844 0.886719 -11.605469 0.886719 -7.039062 C 0.886719 -2.445312 4.113281 0.273438 8.585938 0.273438 Z M 8.542969 -2.855469 C 6.34375 -2.855469 4.796875 -4.523438 4.796875 -7.039062 C 4.796875 -9.554688 6.34375 -11.222656 8.542969 -11.222656 C 10.828125 -11.222656 12.386719 -9.554688 12.386719 -7.039062 C 12.386719 -4.523438 10.828125 -2.855469 8.542969 -2.855469 Z M 8.542969 -2.855469 "/></g></g></g><g fill="#187eb8" fill-opacity="1"><g transform="translate(194.527761, 239.209671)"><g><path d="M 2.035156 0 L 6.015625 0 L 6.015625 -21 L 2.035156 -21 Z M 2.035156 0 "/></g></g></g><g fill="#187eb8" fill-opacity="1"><g transform="translate(202.019378, 239.209671)"><g><path d="M 11.347656 -14.054688 L 11.347656 -6.300781 C 11.332031 -3.71875 9.855469 -2.898438 8.230469 -2.898438 C 6.863281 -2.898438 5.699219 -3.582031 5.699219 -5.441406 L 5.699219 -14.054688 L 1.75 -14.054688 L 1.75 -4.59375 C 1.75 -1.488281 3.609375 0.273438 6.984375 0.273438 C 8.914062 0.273438 10.472656 -0.449219 11.457031 -1.695312 L 11.550781 0 L 15.285156 0 L 15.285156 -14.054688 Z M 11.347656 -14.054688 "/></g></g></g><g fill="#187eb8" fill-opacity="1"><g transform="translate(218.779233, 239.209671)"><g><path d="M 6.984375 0.273438 C 10.019531 0.273438 12.769531 -0.886719 12.769531 -4.113281 C 12.769531 -7.121094 10.390625 -8.066406 8.214844 -8.652344 C 6.453125 -9.132812 4.824219 -9.351562 4.824219 -10.457031 C 4.824219 -11.332031 5.714844 -11.703125 6.753906 -11.703125 C 7.902344 -11.703125 8.832031 -11.238281 9.253906 -9.925781 L 12.605469 -10.609375 C 12.058594 -13.289062 9.472656 -14.328125 6.738281 -14.328125 C 3.621094 -14.328125 1.230469 -13 1.230469 -10.117188 C 1.230469 -7.75 2.84375 -6.847656 4.523438 -6.261719 C 6.753906 -5.46875 8.96875 -5.34375 8.980469 -3.882812 C 9.007812 -2.773438 7.957031 -2.472656 6.984375 -2.472656 C 5.660156 -2.472656 4.59375 -3.0625 4.167969 -4.566406 L 0.875 -3.636719 C 1.378906 -0.96875 3.828125 0.273438 6.984375 0.273438 Z M 6.984375 0.273438 "/></g></g></g></svg>